<svg width="233.35" height="46.202501509338525" viewBox="0 0 369.70270270270277 73.19987006483032"><defs></defs><g transform="matrix(0.8924018144607544,0,0,0.8924018144607544,-3.8164201937786864,12.367159612442627)" fill="#ff7e67"><g xmlns="http://www.w3.org/2000/svg"><g><path fill="#ff7e67" d="M54,53H41v-2h13c4.411,0,8-3.589,8-8c0-3.531-2.265-6.603-5.635-7.644l-0.558-0.172l-0.124-0.57    C54.343,28.463,48.798,24,42.5,24c-3.937,0-7.671,1.722-10.245,4.725l-0.353,0.412l-0.538-0.071C31.08,29.027,30.794,29,30.5,29    c-3.097,0-5.777,2.202-6.375,5.236l-0.145,0.732l-0.743,0.07C19.111,35.428,16,38.851,16,43h-2c0-4.944,3.535-9.063,8.334-9.859    C23.371,29.542,26.696,27,30.5,27c0.19,0,0.384,0.008,0.591,0.024C34.028,23.825,38.156,22,42.5,22    c7.04,0,13.261,4.858,15.005,11.632C61.414,35.087,64,38.781,64,43C64,48.514,59.514,53,54,53z"></path></g><g><path fill="#ff7e67" d="M27.555,35.831C26.445,35.28,25.249,35,24,35v-2c1.561,0,3.056,0.35,4.445,1.04L27.555,35.831z"></path></g><g><path fill="#ff7e67" d="M56.955,35.563c-1.563-0.623-3.328-0.729-4.962-0.31l-0.5-1.937c2.043-0.527,4.243-0.391,6.202,0.388    L56.955,35.563z"></path></g><g><path fill="#ff7e67" d="M34.67,30.734C33.466,29.616,32,29,30,29v-2c3,0,4.33,0.806,5.906,2.269L34.67,30.734z"></path></g></g><g xmlns="http://www.w3.org/2000/svg"><g><rect x="11" y="47" fill="#ff7e67" width="4" height="2"></rect></g><g><rect x="17" y="47" fill="#ff7e67" width="6" height="2"></rect></g><g><path fill="#ff7e67" d="M37.5,49H24v-2h13.5c1.379,0,2.5-1.122,2.5-2.5S38.879,42,37.5,42H37v-2h0.5c2.481,0,4.5,2.019,4.5,4.5    S39.981,49,37.5,49z"></path></g></g><g xmlns="http://www.w3.org/2000/svg"><g><rect x="14" y="51" fill="#ff7e67" width="2" height="2"></rect></g><g><rect x="18" y="51" fill="#ff7e67" width="4" height="2"></rect></g><g><path fill="#ff7e67" d="M30.5,60H30v-2h0.5c1.379,0,2.5-1.122,2.5-2.5S31.879,53,30.5,53H23v-2h7.5c2.481,0,4.5,2.019,4.5,4.5    S32.981,60,30.5,60z"></path></g></g></g><g id="SvgjsG1380" featurekey="J3GnXt-0" transform="matrix(2.168668270111084,0,0,2.168668270111084,63.05302111649191,19.41689808039944)" fill="#07689f"><path d="M6.82 5.84 c1.2933 0 2.32 0.32 3.08 0.96 s1.14 1.5 1.14 2.58 c0 1.5333 -0.81334 2.5734 -2.44 3.12 l0 0.04 l0.02 0 c0.92 0.10666 1.6567 0.49 2.21 1.15 s0.83 1.45 0.83 2.37 c0 1.1867 -0.45666 2.14 -1.37 2.86 s-2.09 1.08 -3.53 1.08 l-4.94 0 l0 -14.16 l5 0 z M6.42 11.72 c0.8 0 1.43 -0.18334 1.89 -0.55 s0.69 -0.89 0.69 -1.57 c0 -0.64 -0.2 -1.1467 -0.6 -1.52 s-0.92666 -0.56 -1.58 -0.56 l-3.08 0 l0 4.2 l2.68 0 z M6.64 18.32 c0.94666 0 1.68 -0.22 2.2 -0.66 s0.78 -1.02 0.78 -1.74 c0 -0.8 -0.26334 -1.42 -0.79 -1.86 s-1.27 -0.66 -2.23 -0.66 l-2.86 0 l0 4.92 l2.9 0 z M18.64 10.28 c0.33334 0 0.6 0.04 0.8 0.12 l-0.08 1.94 c-0.34666 -0.09334 -0.64666 -0.14 -0.9 -0.14 c-1.7733 0 -2.6734 0.98666 -2.7 2.96 l0 4.84 l-1.8 0 l0 -9.48 l1.8 0 l0 1.46 l0.04 0 c0.24 -0.50666 0.62666 -0.91666 1.16 -1.23 s1.0933 -0.47 1.68 -0.47 z M22.4 5.800000000000001 c0.36 0 0.67002 0.13002 0.93002 0.39002 s0.39 0.57 0.39 0.93 c0 0.37334 -0.13334 0.68668 -0.4 0.94002 s-0.57332 0.38 -0.91998 0.38 c-0.37334 0 -0.68668 -0.12666 -0.94002 -0.38 s-0.38 -0.56668 -0.38 -0.94002 s0.13334 -0.68668 0.4 -0.94002 s0.57332 -0.38 0.91998 -0.38 z M23.3 10.52 l0 9.48 l-1.8 0 l0 -9.48 l1.8 0 z M30.52 10.28 c0.68 0 1.3133 0.13998 1.9 0.41998 s1.0533 0.67334 1.4 1.18 l0.04 0 l0 -1.36 l1.8 0 l0 9.48 c-0.01334 1.4 -0.49334 2.5466 -1.44 3.44 s-2.1934 1.3467 -3.74 1.36 c-1.96 0 -3.5066 -0.56666 -4.64 -1.7 l1.22 -1.52 c0.94666 1.0267 2.08 1.54 3.4 1.54 c1.1333 0 1.9833 -0.29 2.55 -0.87 s0.85 -1.37 0.85 -2.37 l0 -1.44 l-0.06 0 c-0.32 0.56 -0.78334 0.98 -1.39 1.26 s-1.2367 0.42 -1.89 0.42 c-1.3867 0 -2.5334 -0.46334 -3.44 -1.39 s-1.3667 -2.07 -1.38 -3.43 c0.01334 -1.52 0.47 -2.7334 1.37 -3.64 s2.05 -1.3667 3.45 -1.38 z M27.62 15.26 c0 0.94666 0.27662 1.7067 0.82996 2.28 s1.3167 0.87334 2.29 0.9 c0.96 0 1.7167 -0.28666 2.27 -0.86 s0.83668 -1.3467 0.85002 -2.32 c0 -0.98666 -0.28334 -1.78 -0.85 -2.38 s-1.33 -0.90666 -2.29 -0.92 c-0.94666 0 -1.7 0.31334 -2.26 0.94 s-0.84 1.4133 -0.84 2.36 z M40.18000000000001 4.880000000000001 l0.000019531 7.1 l0.04 0 c0.25334 -0.53334 0.66334 -0.95 1.23 -1.25 s1.1967 -0.45 1.89 -0.45 c1.0533 0 1.89 0.32 2.51 0.96 s0.93 1.5 0.93 2.58 l0 6.18 l-1.8 0 l0 -5.66 c0 -0.73334 -0.19 -1.3133 -0.57 -1.74 s-0.91 -0.64 -1.59 -0.64 c-0.84 0 -1.4867 0.27334 -1.94 0.82 s-0.68668 1.3 -0.70002 2.26 l0 4.96 l-1.8 0 l0 -15.12 l1.8 0 z M52 7.859999999999999 l-0.000019531 2.66 l2.58 0 l0 1.56 l-2.58 0 l0 4.56 c0 0.61334 0.08666 1.0867 0.26 1.42 s0.54 0.5 1.1 0.5 c0.53334 0 0.96 -0.09334 1.28 -0.28 l0 1.64 c-0.34666 0.18666 -0.89332 0.29332 -1.64 0.31998 c-0.72 0 -1.2767 -0.11 -1.67 -0.33 s-0.68 -0.52666 -0.86 -0.92 s-0.27 -1.01 -0.27 -1.85 l0 -5.06 l-2.08 0 l0 -1.56 l2.08 0 l0 -2.66 l1.8 0 z M69.1 5.84 l6.06 14.16 l-2.24 0 l-1.42 -3.5 l-6.74 0 l-1.4 3.5 l-2.24 0 l6.24 -14.16 l1.74 0 z M65.44 14.82 l5.36 0 l-2.64 -6.5 l-0.04 0 z M81.5 10.28 c1.0667 0 1.9033 0.32 2.51 0.96 s0.91666 1.5 0.93 2.58 l0 6.18 l-1.8 0 l0 -5.66 c0 -0.73334 -0.19 -1.3133 -0.57 -1.74 s-0.91 -0.64 -1.59 -0.64 c-0.84 0 -1.49 0.28 -1.95 0.84 s-0.69 1.3067 -0.69 2.24 l0 4.96 l-1.8 0 l0 -9.48 l1.8 0 l0 1.46 l0.04 0 c0.25334 -0.53334 0.66334 -0.95 1.23 -1.25 s1.1967 -0.45 1.89 -0.45 z M91.46000000000001 10.28 c1.2 0 2.15 0.27328 2.85 0.81994 s1.07 1.3067 1.11 2.28 l0 5.08 c0 0.48 0.02666 0.99334 0.08 1.54 l-1.6 0 c-0.04 -0.42666 -0.06 -0.90666 -0.06 -1.44 l-0.04 0 c-0.41334 0.61334 -0.89 1.0467 -1.43 1.3 s-1.17 0.38 -1.89 0.38 c-0.97334 0 -1.7633 -0.26 -2.37 -0.78 s-0.91 -1.2067 -0.91 -2.06 c0 -1.08 0.45334 -1.8967 1.36 -2.45 s2.1866 -0.83 3.84 -0.83 l1.34 0 l0 -0.34 c0 -0.64 -0.21 -1.1433 -0.63 -1.51 s-0.97 -0.55 -1.65 -0.55 c-0.50666 0 -0.95 0.07666 -1.33 0.23 s-0.83 0.43668 -1.35 0.85002 l-1.08 -1.12 c1.0267 -0.90666 2.28 -1.3733 3.76 -1.4 z M89.00000000000001 17.259999999999998 c0 1.0267 0.68002 1.54 2.04 1.54 c0.81334 0 1.4633 -0.24334 1.95 -0.73 s0.73666 -1.19 0.75 -2.11 l0 -0.52 l-1.02 0 c-1.1733 0 -2.0866 0.15 -2.74 0.45 s-0.98 0.75666 -0.98 1.37 z M99.98 4.880000000000001 l0 15.12 l-1.8 0 l0 -15.12 l1.8 0 z M103.78 10.52 l2.82 7.4 l0.04 0 l2.68 -7.4 l1.94 0 l-4.48 11.48 c-0.41334 1.1067 -0.86668 1.85 -1.36 2.23 s-1.1267 0.57 -1.9 0.57 c-0.65334 0 -1.1867 -0.08666 -1.6 -0.26 l0.22 -1.62 c0.37334 0.13334 0.73334 0.2 1.08 0.2 c0.56 0 0.96334 -0.13666 1.21 -0.41 s0.46332 -0.66334 0.64998 -1.17 l0.56 -1.48 l-3.94 -9.54 l2.08 0 z M115.34 7.859999999999999 l-0.000019531 2.66 l2.58 0 l0 1.56 l-2.58 0 l0 4.56 c0 0.61334 0.08666 1.0867 0.26 1.42 s0.54 0.5 1.1 0.5 c0.53334 0 0.96 -0.09334 1.28 -0.28 l0 1.64 c-0.34666 0.18666 -0.89332 0.29332 -1.64 0.31998 c-0.72 0 -1.2767 -0.11 -1.67 -0.33 s-0.68 -0.52666 -0.86 -0.92 s-0.27 -1.01 -0.27 -1.85 l0 -5.06 l-2.08 0 l0 -1.56 l2.08 0 l0 -2.66 l1.8 0 z M121.30000000000001 5.800000000000001 c0.36 0 0.67002 0.13002 0.93002 0.39002 s0.39 0.57 0.39 0.93 c0 0.37334 -0.13334 0.68668 -0.4 0.94002 s-0.57332 0.38 -0.91998 0.38 c-0.37334 0 -0.68668 -0.12666 -0.94002 -0.38 s-0.38 -0.56668 -0.38 -0.94002 s0.13334 -0.68668 0.4 -0.94002 s0.57332 -0.38 0.91998 -0.38 z M122.2 10.52 l0 9.48 l-1.8 0 l0 -9.48 l1.8 0 z M129.56 10.3 c1.5067 0 2.72 0.5 3.64 1.5 l-1.36 1.24 c-0.65334 -0.70666 -1.44 -1.06 -2.36 -1.06 c-0.88 0 -1.5933 0.31334 -2.14 0.94 s-0.82 1.4333 -0.82 2.42 c0 0.93334 0.28666 1.7 0.86 2.3 s1.3067 0.90666 2.2 0.92 c0.94666 0 1.7133 -0.35334 2.3 -1.06 l1.28 1.28 c-0.85334 0.97334 -2.0534 1.46 -3.6 1.46 c-1.4533 0 -2.6366 -0.45334 -3.55 -1.36 s-1.3833 -2.1 -1.41 -3.58 c0.01334 -1.5067 0.48334 -2.7134 1.41 -3.62 s2.11 -1.3667 3.55 -1.38 z M137.9 10.28 c0.72 0 1.3633 0.13338 1.93 0.40004 s1.0033 0.65332 1.31 1.16 l-1.4 1.06 c-0.53334 -0.62666 -1.18 -0.94 -1.94 -0.94 c-0.45334 0 -0.83 0.1 -1.13 0.3 s-0.45 0.45334 -0.45 0.76 c0 0.66666 0.62 1.12 1.86 1.36 c1.2133 0.22666 2.07 0.56 2.57 1 s0.75 1.0667 0.75 1.88 c0 0.92 -0.35 1.6433 -1.05 2.17 s-1.6367 0.79666 -2.81 0.81 c-0.88 0 -1.6033 -0.13666 -2.17 -0.41 s-1.0567 -0.69668 -1.47 -1.27 l1.36 -1.12 c0.72 0.74666 1.4867 1.12 2.3 1.12 c0.53334 0 0.98668 -0.10666 1.36 -0.32 s0.56 -0.50668 0.56 -0.88002 c0 -0.65334 -0.6 -1.1067 -1.8 -1.36 c-1.3333 -0.26666 -2.23 -0.62332 -2.69 -1.07 s-0.69 -1.0233 -0.69 -1.73 c0 -0.88 0.34 -1.5833 1.02 -2.11 s1.54 -0.79666 2.58 -0.81 z"></path></g></svg>